<?xml version="1.0" standalone="no"?>
<!DOCTYPE svg PUBLIC "-//W3C//DTD SVG 20010904//EN"
 "http://www.w3.org/TR/2001/REC-SVG-20010904/DTD/svg10.dtd">
<svg version="1.0" xmlns="http://www.w3.org/2000/svg"
 width="1280.000000pt" height="828.000000pt" viewBox="0 0 1280.000000 828.000000"
 preserveAspectRatio="xMidYMid meet">
<metadata>
Created by potrace 1.15, written by Peter Selinger 2001-2017
</metadata>
<g transform="translate(0.000000,828.000000) scale(0.100000,-0.100000)"
fill="#fff" stroke="none">
<path d="M0 4140 l0 -4140 1438 0 1439 0 -207 207 c-444 447 -741 861 -1001
1398 -288 595 -445 1192 -510 1940 -18 207 -15 790 5 1000 48 497 144 932 297
1342 216 579 521 1093 945 1592 138 161 483 505 643 641 68 58 138 117 155
132 l31 27 -1617 1 -1618 0 0 -4140z"/>
<path d="M10056 8192 c739 -547 1298 -1302 1619 -2189 260 -714 376 -1510 344
-2351 -42 -1118 -331 -1997 -909 -2767 -158 -211 -275 -342 -546 -612 l-273
-273 1254 0 1255 0 0 4133 0 4134 -577 6 c-318 4 -962 7 -1432 7 l-854 0 119
-88z"/>
<path d="M8374 7843 c-77 -185 -224 -481 -347 -694 -229 -398 -598 -952 -915
-1372 -41 -54 -72 -101 -69 -103 5 -6 337 347 478 509 306 352 642 796 855
1132 45 72 88 138 96 147 12 16 25 12 163 -56 197 -95 362 -189 513 -292 67
-46 122 -80 122 -76 0 14 -157 213 -259 326 -166 188 -421 406 -571 489 l-50
28 -16 -38z"/>
<path d="M3419 7538 c-145 -128 -336 -361 -468 -571 -73 -115 -181 -311 -181
-328 0 -6 46 33 103 87 56 53 152 139 212 189 121 102 374 295 384 294 3 0 47
-51 98 -112 266 -325 694 -742 1088 -1062 231 -187 535 -412 535 -396 0 5 -44
50 -97 101 -209 196 -659 674 -904 960 -252 293 -479 594 -609 808 -35 56 -67
102 -71 102 -5 0 -45 -32 -90 -72z"/>
<path d="M8521 6983 c-7 -16 -58 -107 -113 -203 -315 -549 -721 -1139 -1175
-1708 -68 -85 -123 -156 -123 -158 0 -8 326 -4 490 6 606 37 1138 150 1589
340 224 93 501 240 501 265 0 7 -16 59 -35 115 -179 512 -520 954 -1003 1299
-54 39 -104 71 -109 71 -5 0 -15 -12 -22 -27z"/>
<path d="M3509 6513 c-358 -364 -577 -727 -703 -1167 -33 -115 -76 -309 -76
-345 0 -19 10 -23 190 -86 307 -109 618 -175 980 -210 173 -17 656 -20 851 -5
212 17 612 70 625 83 2 2 -56 57 -129 123 -194 175 -655 632 -846 839 -249
271 -552 628 -710 838 -24 31 -46 57 -50 57 -4 0 -63 -57 -132 -127z"/>
<path d="M10375 4211 c-3 -6 -72 -67 -153 -137 -323 -277 -706 -539 -1113
-760 l-135 -74 -65 -485 c-35 -267 -67 -485 -70 -485 -4 0 -532 668 -543 687
-1 1 -55 -14 -121 -33 -286 -83 -672 -170 -975 -218 -394 -64 -662 -86 -1116
-93 -482 -7 -791 11 -1218 72 -94 13 -171 23 -172 22 -1 -1 -102 -180 -224
-397 -123 -217 -226 -399 -231 -404 -9 -10 -5 -23 -158 533 -66 238 -122 435
-124 437 -2 2 -77 27 -167 55 -417 128 -873 330 -1239 549 -74 44 -136 78
-139 76 -6 -6 60 -179 130 -341 372 -861 983 -1611 1802 -2212 l126 -93 182
365 c101 201 185 365 188 365 3 0 61 -177 128 -392 68 -216 142 -451 165 -522
l42 -129 127 -38 c181 -54 417 -105 608 -131 142 -19 209 -23 485 -23 279 1
341 3 480 23 311 44 597 117 900 228 l121 45 88 557 c49 306 92 560 95 563 3
4 134 -150 291 -342 157 -192 289 -349 294 -349 15 0 430 423 528 540 617 731
989 1496 1173 2414 24 120 26 153 10 127z"/>
</g>
</svg>
